<svg
    width="33"
    height="33"
    viewBox="0 0 33 33"
    fill="none"
    className="w-4 h-4"
    xmlns="http://www.w3.org/2000/svg"
>
    <path
        d="M3.99996 7C2.72332 7 1.66663 8.0567 1.66663 9.33333V15.3333V23.3333C1.66663 24.61 2.72332 25.6667 3.99996 25.6667H11.3333C14.4511 25.6667 17 23.1178 17 20C17 18.029 15.9199 16.3702 14.3828 15.3542C15.5343 14.502 16.3333 13.2 16.3333 11.6667C16.3333 9.10107 14.2322 7 11.6666 7H3.99996ZM22.6744 8.33333C22.1224 8.33333 21.6744 8.78133 21.6744 9.33333C21.6744 9.88533 22.1224 10.3333 22.6744 10.3333H28.0078C28.5604 10.3333 29.0078 9.88533 29.0078 9.33333C29.0078 8.78133 28.5598 8.33333 28.0078 8.33333H22.6744ZM3.99996 9H11.6666C13.1517 9 14.3333 10.1816 14.3333 11.6667C14.3333 13.1517 13.1517 14.3333 11.6666 14.3333H11.3333H3.66663V9.33333C3.66663 9.13664 3.80326 9 3.99996 9ZM24.9974 11.6667C21.4395 11.6667 18.6315 14.6218 18.4127 18.2448C18.3508 18.3773 18.3188 18.5217 18.3188 18.668C18.3188 18.8142 18.3508 18.9587 18.4127 19.0911C18.6328 22.713 21.4409 25.6667 24.9974 25.6667C27.3204 25.6667 29.6148 24.4844 30.845 22.5365C30.9183 22.4255 30.9687 22.301 30.9934 22.1703C31.018 22.0396 31.0163 21.9053 30.9883 21.7753C30.9604 21.6452 30.9068 21.5221 30.8307 21.413C30.7546 21.3039 30.6575 21.2111 30.5451 21.14C30.4327 21.0689 30.3073 21.021 30.1761 20.9989C30.045 20.9769 29.9107 20.9813 29.7813 21.0118C29.6518 21.0423 29.5297 21.0983 29.4222 21.1765C29.3146 21.2548 29.2238 21.3537 29.1549 21.4674C28.3532 22.7369 26.6037 23.6667 24.9974 23.6667C22.7658 23.6667 20.9648 21.9558 20.5195 19.6667H29.9895C30.9708 19.6667 31.7646 18.7881 31.6497 17.806V17.8047C31.2477 14.368 28.4174 11.6667 24.9974 11.6667ZM24.9974 13.6667C27.2342 13.6667 29.1062 15.3769 29.552 17.6667H20.5195C20.9647 15.3774 22.7652 13.6667 24.9974 13.6667ZM3.66663 16.3333H11.3333C13.3702 16.3333 15 17.9631 15 20C15 22.0369 13.3702 23.6667 11.3333 23.6667H3.99996C3.80326 23.6667 3.66663 23.53 3.66663 23.3333V16.3333Z"
        fill="#94a3b8"
    />
</svg>