<svg
    width="33"
    height="33"
    viewBox="0 0 33 33"
    fill="none"
    className="w-4 h-4"
    xmlns="http://www.w3.org/2000/svg">
    <path
        d="M16.6667 3.3335C9.31475 3.3335 3.33337 9.31488 3.33337 16.6668C3.33337 24.0188 9.31475 30.0002 16.6667 30.0002C24.0187 30.0002 30 24.0188 30 16.6668C30 9.31488 24.0187 3.3335 16.6667 3.3335ZM16.6667 5.3335C22.9378 5.3335 28 10.3958 28 16.6668C28 21.7771 24.638 26.0818 20 27.5015V24.0913C20 22.8179 19.2663 21.7259 18.2058 21.1825C19.2369 20.9852 20.1944 20.594 20.9987 20.0414C21.803 19.4888 22.4309 18.7907 22.8305 18.0051C23.23 17.2194 23.3895 16.3689 23.2958 15.524C23.2021 14.6792 22.8579 13.8644 22.2917 13.1473C22.5874 12.2371 22.9177 10.6406 22.1329 9.38428C20.6196 9.38428 19.6432 10.4216 19.1771 11.0666C18.3804 10.8049 17.5279 10.6691 16.6667 10.6668C15.8049 10.6676 14.9515 10.802 14.1537 11.0627C13.6865 10.4173 12.7109 9.38428 11.2006 9.38428C10.2998 10.826 10.8567 12.3765 11.155 13.0093C10.5505 13.7233 10.1715 14.5439 10.0505 15.4008C9.92936 16.2577 10.0698 17.1253 10.4597 17.9292C10.8497 18.7332 11.4775 19.4495 12.2893 20.0168C13.1012 20.584 14.0729 20.9854 15.1211 21.1864C14.2504 21.6352 13.5982 22.4495 13.3985 23.4377H12.5222C11.6575 23.4377 11.3215 23.0863 10.8542 22.4937C10.3929 21.901 9.89682 21.5027 9.30082 21.3374C8.97949 21.3034 8.76301 21.5478 9.04301 21.7645C9.98901 22.4085 10.0543 23.4625 10.4336 24.1525C10.779 24.7738 11.4865 25.3335 12.2865 25.3335H13.3334V27.5015C8.69541 26.0818 5.33337 21.7771 5.33337 16.6668C5.33337 10.3958 10.3956 5.3335 16.6667 5.3335Z"
        fill="#94a3b8" />
</svg>