<svg width="32" height="33" viewBox="0 0 32 33" fill="none" xmlns="http://www.w3.org/2000/svg">
    <path
        d="M11 4C6.77757 4 3.33331 7.44426 3.33331 11.6667V21.6667C3.33331 25.8885 6.77745 29.3333 11 29.3333H21C25.2219 29.3333 28.6666 25.8886 28.6666 21.6667V11.6667C28.6666 7.44414 25.2218 4 21 4H11ZM11 6H21C24.1408 6 26.6666 8.52519 26.6666 11.6667V21.6667C26.6666 24.8074 24.1407 27.3333 21 27.3333H11C7.85851 27.3333 5.33331 24.8075 5.33331 21.6667V11.6667C5.33331 8.52507 7.85839 6 11 6ZM22.6666 8.66667C21.93 8.66667 21.3333 9.26333 21.3333 10C21.3333 10.7367 21.93 11.3333 22.6666 11.3333C23.4033 11.3333 24 10.7367 24 10C24 9.26333 23.4033 8.66667 22.6666 8.66667ZM16 10C12.3301 10 9.33331 12.9968 9.33331 16.6667C9.33331 20.3365 12.3301 23.3333 16 23.3333C19.6699 23.3333 22.6666 20.3365 22.6666 16.6667C22.6666 12.9968 19.6699 10 16 10ZM16 12C18.5888 12 20.6666 14.0779 20.6666 16.6667C20.6666 19.2555 18.5888 21.3333 16 21.3333C13.4112 21.3333 11.3333 19.2555 11.3333 16.6667C11.3333 14.0779 13.4112 12 16 12Z"
        fill="#94a3b8" />
</svg>