<svg width="32" height="33" viewBox="0 0 32 33" fill="none"
    className="w-4 h-4" xmlns="http://www.w3.org/2000/svg">
    <path
        d="M7.66667 4.33325C5.65348 4.33325 4 5.98674 4 7.99992V24.6666C4 26.6798 5.65348 28.3333 7.66667 28.3333H24.3333C26.3465 28.3333 28 26.6798 28 24.6666V7.99992C28 5.98674 26.3465 4.33325 24.3333 4.33325H7.66667ZM7.66667 6.33325H24.3333C25.2655 6.33325 26 7.06777 26 7.99992V24.6666C26 25.5987 25.2655 26.3333 24.3333 26.3333H7.66667C6.73452 26.3333 6 25.5987 6 24.6666V7.99992C6 7.06777 6.73452 6.33325 7.66667 6.33325ZM10.3333 8.99992C9.89131 8.99992 9.46738 9.17551 9.15482 9.48807C8.84226 9.80063 8.66667 10.2246 8.66667 10.6666C8.66667 11.1086 8.84226 11.5325 9.15482 11.8451C9.46738 12.1577 9.89131 12.3333 10.3333 12.3333C10.7754 12.3333 11.1993 12.1577 11.5118 11.8451C11.8244 11.5325 12 11.1086 12 10.6666C12 10.2246 11.8244 9.80063 11.5118 9.48807C11.1993 9.17551 10.7754 8.99992 10.3333 8.99992ZM9.33333 13.6666C8.96467 13.6666 8.66667 13.9646 8.66667 14.3333V22.9999C8.66667 23.3686 8.96467 23.6666 9.33333 23.6666H11.3333C11.702 23.6666 12 23.3686 12 22.9999V14.3333C12 13.9646 11.702 13.6666 11.3333 13.6666H9.33333ZM14 13.6666C13.6313 13.6666 13.3333 13.9646 13.3333 14.3333V22.9999C13.3333 23.3686 13.6313 23.6666 14 23.6666H16C16.3687 23.6666 16.6667 23.3686 16.6667 22.9999V17.9999C16.6667 17.0806 17.414 16.3333 18.3333 16.3333C19.2527 16.3333 20 17.0806 20 17.9999V22.9999C20 23.3686 20.298 23.6666 20.6667 23.6666H22.6667C23.0353 23.6666 23.3333 23.3686 23.3333 22.9999V17.6666C23.3333 15.4606 21.5393 13.6666 19.3333 13.6666C18.308 13.6666 17.3753 14.0573 16.6667 14.6939V14.3333C16.6667 13.9646 16.3687 13.6666 16 13.6666H14Z"
        fill="#94a3b8" />
</svg>