<svg width="24" height="24" viewBox="0 0 24 24" fill="none" xmlns="http://www.w3.org/2000/svg">
<path d="M15.1171 2.47217L2.84521 3.36092C2.84146 3.36119 2.83771 3.3615 2.83396 3.36186C2.8277 3.36268 2.82145 3.36361 2.81521 3.36467C2.80359 3.36612 2.79202 3.368 2.78053 3.3703C2.77582 3.37148 2.77113 3.37273 2.76646 3.37405C2.76113 3.37521 2.75582 3.37646 2.75053 3.3778C2.73883 3.38111 2.72726 3.38486 2.71584 3.38905C2.70826 3.39198 2.70076 3.39511 2.69334 3.39842C2.68894 3.40023 2.68456 3.40211 2.68021 3.40405C2.655 3.41568 2.63085 3.42949 2.60803 3.4453C2.60393 3.44774 2.59986 3.45024 2.59584 3.4528C2.58585 3.46023 2.57616 3.46805 2.56678 3.47624C2.56489 3.4781 2.56301 3.47997 2.56115 3.48186C2.5531 3.48879 2.54529 3.49598 2.53771 3.50342C2.53291 3.50863 2.52822 3.51395 2.52365 3.51936C2.51651 3.52726 2.50963 3.53538 2.50303 3.54374C2.50049 3.54683 2.49799 3.54995 2.49553 3.55311C2.48828 3.56285 2.4814 3.57285 2.4749 3.58311C2.47299 3.58621 2.47112 3.58934 2.46928 3.59249C2.46296 3.60257 2.45702 3.61289 2.45146 3.62342C2.44921 3.62776 2.44702 3.63214 2.4449 3.63655C2.43977 3.64792 2.43507 3.6595 2.43084 3.67124C2.43021 3.67248 2.42958 3.67373 2.42896 3.67499C2.41929 3.7021 2.41207 3.73002 2.4074 3.75842C2.40639 3.76341 2.40545 3.76841 2.40459 3.77342C2.40282 3.78618 2.40157 3.799 2.40084 3.81186V3.81374C2.40029 3.82248 2.39998 3.83123 2.3999 3.83999V16.1944C2.3999 16.6867 2.55118 17.1681 2.83396 17.5716C2.84136 17.5822 2.84918 17.5925 2.8574 17.6025L5.82084 21.1687C5.84943 21.2202 5.88725 21.266 5.9324 21.3037L6.1199 21.5287C6.1437 21.5574 6.17076 21.5832 6.20053 21.6056C6.48234 21.8791 6.87214 22.0404 7.29271 22.0134L20.2527 21.1772C21.0059 21.1285 21.5999 20.4946 21.5999 19.74V7.26374C21.5999 6.82048 21.3913 6.42751 21.074 6.16311C21.0515 6.13739 21.0264 6.11413 20.999 6.09374L20.7665 5.92217C20.7374 5.89448 20.7049 5.87054 20.6699 5.85092L16.7155 2.93436C16.2551 2.59462 15.6876 2.43078 15.1171 2.47217ZM15.1865 3.42936C15.5289 3.40451 15.8696 3.50324 16.1455 3.70686L19.0883 5.87811L7.07615 6.66467C6.66257 6.69167 6.25799 6.53864 5.96428 6.24561H5.96334L3.96178 4.24311L15.1865 3.42936ZM3.3599 4.99874L5.28553 6.92436L5.7599 7.39874V19.5928L3.61865 17.0156C3.45107 16.7748 3.3599 16.4886 3.3599 16.1944V4.99874ZM20.129 6.78467C20.4127 6.76646 20.6399 6.97974 20.6399 7.26374V19.74C20.6399 19.9973 20.4476 20.2025 20.1908 20.2191L7.23084 21.0553C7.08991 21.0643 6.96295 21.0161 6.87084 20.9306L6.8699 20.9297L6.86896 20.9287C6.867 20.9269 6.8662 20.9241 6.86428 20.9222C6.86242 20.9197 6.86055 20.9172 6.85865 20.9147C6.77377 20.8288 6.7199 20.7117 6.7199 20.5762V8.09999C6.7199 7.842 6.9119 7.63754 7.16896 7.62092L20.129 6.78467ZM18.478 9.11999L16.0424 9.25499C15.6709 9.29339 15.238 9.57023 15.238 10.02L16.318 10.11V15.2419L12.583 9.48093L9.78365 9.63843C9.25997 9.67683 9.11709 10.066 9.11709 10.5609H10.1971V18.0319C10.1971 18.0319 9.69198 18.1682 9.52302 18.2119C9.16398 18.3045 9.11709 18.6167 9.11709 18.8419C9.11709 18.8419 10.9183 18.7515 11.7468 18.6891C12.6871 18.6171 12.718 17.9869 12.718 17.9869L11.638 17.7619V12.2259C11.638 12.2259 14.3835 16.6369 15.223 17.9334C15.6181 18.5425 15.913 18.6619 16.4324 18.6619C16.8586 18.6619 17.2617 18.536 17.7571 18.2681V9.93468C17.7571 9.93468 17.8483 9.92982 18.1358 9.83718C18.4637 9.7311 18.478 9.43487 18.478 9.11999Z" fill="#94A3B8"/>
</svg>
